<?xml version="1.0" encoding="iso-8859-1"?>
<!-- Generator: Adobe Illustrator 19.0.0, SVG Export Plug-In . SVG Version: 6.00 Build 0)  -->
<svg version="1.1" id="Layer_1" xmlns="http://www.w3.org/2000/svg" xmlns:xlink="http://www.w3.org/1999/xlink" x="0px" y="0px"
	 viewBox="0 0 512.004 512.004" style="enable-background:new 0 0 512.004 512.004;" xml:space="preserve">
<g>
	<g>
		<path d="M508.256,3.75c-5.001-5.001-13.099-5.001-18.099,0l-486.4,486.4c-5.001,5-5.001,13.099,0,18.099
			c2.492,2.509,5.768,3.755,9.045,3.755s6.554-1.246,9.054-3.746l486.4-486.4C513.248,16.858,513.248,8.751,508.256,3.75z"/>
	</g>
</g>
<g>
	<g>
		<path d="M128.002,0.004c-70.69,0-128,57.31-128,128s57.31,128,128,128s128-57.31,128-128S198.692,0.004,128.002,0.004z
			 M128.002,230.404c-56.465,0-102.4-45.935-102.4-102.4s45.935-102.4,102.4-102.4s102.4,45.935,102.4,102.4
			S184.467,230.404,128.002,230.404z"/>
	</g>
</g>
<g>
	<g>
		<path d="M384.002,256.004c-70.69,0-128,57.31-128,128s57.31,128,128,128s128-57.31,128-128S454.692,256.004,384.002,256.004z
			 M384.002,486.404c-56.465,0-102.4-45.935-102.4-102.4c0-56.465,45.935-102.4,102.4-102.4c56.465,0,102.4,45.935,102.4,102.4
			C486.402,440.469,440.467,486.404,384.002,486.404z"/>
	</g>
</g>
<g>
</g>
<g>
</g>
<g>
</g>
<g>
</g>
<g>
</g>
<g>
</g>
<g>
</g>
<g>
</g>
<g>
</g>
<g>
</g>
<g>
</g>
<g>
</g>
<g>
</g>
<g>
</g>
<g>
</g>
</svg>
